<svg xmlns="http://www.w3.org/2000/svg" viewBox="0 0 720 380" width="720" height="380"><defs><linearGradient id="g" x1="0" y1="0" x2="1" y2="1"><stop offset="0" stop-color="#e0f7fa"/><stop offset="1" stop-color="#fce7f3"/></linearGradient></defs><rect x="4" y="4" width="712" height="372" rx="26" fill="url(#g)" stroke="#e11d74" stroke-width="4" stroke-dasharray="14 8"/><g font-family="Segoe UI,Arial" font-size="24" fill="#123a44"><rect x="170" y="36" width="380" height="226" rx="12" fill="#fff" stroke="#334155" stroke-width="4"/><text x="195" y="76" fill="#0e7490" font-size="26">●</text><rect x="221" y="62" width="220" height="14" rx="5" fill="#94a3b8"/><text x="235" y="108" fill="#16a34a" font-size="22">▸</text><rect x="261" y="94" width="170" height="11" rx="5" fill="#94a3b8"/><text x="235" y="140" fill="#16a34a" font-size="22">▸</text><rect x="261" y="126" width="150" height="11" rx="5" fill="#94a3b8"/><text x="195" y="172" fill="#0e7490" font-size="26">●</text><rect x="221" y="158" width="200" height="14" rx="5" fill="#94a3b8"/><text x="235" y="204" fill="#16a34a" font-size="22">▸</text><rect x="261" y="190" width="160" height="11" rx="5" fill="#94a3b8"/><text x="275" y="236" fill="#f59e0b" font-size="18">✓</text><rect x="301" y="222" width="120" height="9" rx="5" fill="#94a3b8"/></g><g stroke="#b45309" stroke-width="8" stroke-linecap="round"><line x1="588" y1="60" x2="588" y2="250"/><line x1="652" y1="60" x2="652" y2="250"/><line x1="588" y1="90" x2="652" y2="90"/><line x1="588" y1="130" x2="652" y2="130"/><line x1="588" y1="170" x2="652" y2="170"/><line x1="588" y1="210" x2="652" y2="210"/></g><rect x="157" y="296" width="46" height="54" rx="9" fill="#fff" stroke="#0e7490" stroke-width="3"/><rect x="213" y="296" width="46" height="54" rx="9" fill="#fff" stroke="#0e7490" stroke-width="3"/><rect x="269" y="296" width="46" height="54" rx="9" fill="#fff" stroke="#0e7490" stroke-width="3"/><rect x="325" y="296" width="46" height="54" rx="9" fill="#fff" stroke="#0e7490" stroke-width="3"/><rect x="405" y="296" width="46" height="54" rx="9" fill="#fff" stroke="#0e7490" stroke-width="3"/><rect x="461" y="296" width="46" height="54" rx="9" fill="#fff" stroke="#0e7490" stroke-width="3"/><rect x="517" y="296" width="46" height="54" rx="9" fill="#fff" stroke="#0e7490" stroke-width="3"/><text x="360" y="284" text-anchor="middle" font-family="Segoe UI,Arial" font-size="22" font-weight="600" fill="#4a5f66">2 từ · 7 chữ cái</text></svg>