<svg xmlns="http://www.w3.org/2000/svg" viewBox="0 0 720 380" width="720" height="380"><defs><linearGradient id="g" x1="0" y1="0" x2="1" y2="1"><stop offset="0" stop-color="#e0f7fa"/><stop offset="1" stop-color="#fce7f3"/></linearGradient></defs><rect x="4" y="4" width="712" height="372" rx="26" fill="url(#g)" stroke="#e11d74" stroke-width="4" stroke-dasharray="14 8"/><rect x="210" y="40" width="300" height="220" rx="12" fill="#fff" stroke="#334155" stroke-width="4"/><rect x="235" y="62" width="250" height="44" rx="8" fill="#e11d74"/><text x="360" y="95" text-anchor="middle" font-family="Segoe UI,Arial" font-weight="800" font-size="30" fill="#fff">???</text><rect x="235" y="125" width="240" height="10" rx="5" fill="#94a3b8"/><rect x="235" y="150" width="210" height="10" rx="5" fill="#94a3b8"/><rect x="235" y="175" width="250" height="10" rx="5" fill="#94a3b8"/><rect x="235" y="200" width="180" height="10" rx="5" fill="#94a3b8"/><rect x="235" y="225" width="220" height="10" rx="5" fill="#94a3b8"/><text x="580" y="140" text-anchor="middle" font-size="80" font-family="Segoe UI Emoji,Apple Color Emoji,Noto Color Emoji,sans-serif">👆</text><text x="120" y="190" text-anchor="middle" font-size="90" font-family="Segoe UI Emoji,Apple Color Emoji,Noto Color Emoji,sans-serif">📰</text><rect x="185" y="296" width="46" height="54" rx="9" fill="#fff" stroke="#0e7490" stroke-width="3"/><rect x="241" y="296" width="46" height="54" rx="9" fill="#fff" stroke="#0e7490" stroke-width="3"/><rect x="297" y="296" width="46" height="54" rx="9" fill="#fff" stroke="#0e7490" stroke-width="3"/><rect x="353" y="296" width="46" height="54" rx="9" fill="#fff" stroke="#0e7490" stroke-width="3"/><rect x="433" y="296" width="46" height="54" rx="9" fill="#fff" stroke="#0e7490" stroke-width="3"/><rect x="489" y="296" width="46" height="54" rx="9" fill="#fff" stroke="#0e7490" stroke-width="3"/><text x="360" y="284" text-anchor="middle" font-family="Segoe UI,Arial" font-size="22" font-weight="600" fill="#4a5f66">2 từ · 6 chữ cái</text></svg>