<svg xmlns="http://www.w3.org/2000/svg" viewBox="0 0 200 140" width="200" height="140">
  <!-- Hình minh hoạ tự vẽ: các bạn học sinh bên máy tính (ảnh góc trên bên phải tờ rơi) -->
  <rect width="200" height="140" rx="6" fill="#fde68a"/>
  <rect x="0" y="96" width="200" height="44" fill="#f59e0b"/>
  <g>
    <circle cx="48" cy="46" r="15" fill="#fcd34d" stroke="#92400e" stroke-width="2"/>
    <path d="M38 40 Q48 26 60 40" fill="#1f2937"/>
    <path d="M22 100 Q24 66 48 64 Q72 66 74 100 Z" fill="#2563eb"/>
    <circle cx="100" cy="40" r="15" fill="#fde68a" stroke="#92400e" stroke-width="2"/>
    <path d="M85 38 Q100 18 115 38 L115 52 Q100 44 85 52 Z" fill="#7c2d12"/>
    <path d="M74 100 Q76 60 100 58 Q124 60 126 100 Z" fill="#db2777"/>
    <circle cx="152" cy="46" r="15" fill="#fcd34d" stroke="#92400e" stroke-width="2"/>
    <path d="M141 41 Q152 28 164 41" fill="#111827"/>
    <path d="M126 100 Q128 66 152 64 Q176 66 178 100 Z" fill="#16a34a"/>
  </g>
  <rect x="62" y="84" width="76" height="46" rx="4" fill="#1e293b"/>
  <rect x="67" y="89" width="66" height="34" rx="2" fill="#38bdf8"/>
  <text x="100" y="111" font-family="Consolas, monospace" font-size="13" font-weight="700" fill="#0f172a" text-anchor="middle">&lt;/&gt; 101</text>
  <rect x="52" y="128" width="96" height="6" rx="3" fill="#334155"/>
</svg>
